<svg width="15" height="13" viewBox="0 0 18 19" fill="none" xmlns="http://www.w3.org/2000/svg">
<path fill-rule="evenodd" clip-rule="evenodd" d="M5.28955 0.057C6.24927 0.0103636 6.55527 0 9 0C11.4447 0 11.7507 0.0112273 12.7096 0.057C13.6685 0.102773 14.3231 0.264273 14.8958 0.498318C15.4955 0.737545 16.0396 1.1115 16.4896 1.59514C16.9478 2.06927 17.3013 2.64273 17.5271 3.27664C17.7496 3.88118 17.9018 4.57209 17.946 5.58255C17.9902 6.59732 18 6.92032 18 9.5C18 12.0805 17.9894 12.4035 17.946 13.4166C17.9026 14.427 17.7496 15.118 17.5271 15.7225C17.3013 16.3565 16.9472 16.9309 16.4896 17.4057C16.0396 17.8894 15.4955 18.2625 14.8958 18.5008C14.3231 18.7357 13.6685 18.8964 12.7113 18.943C11.7507 18.9896 11.4447 19 9 19C6.55527 19 6.24927 18.9888 5.28955 18.943C4.33227 18.8972 3.67773 18.7357 3.105 18.5008C2.50439 18.2624 1.96022 17.8887 1.51036 17.4057C1.05249 16.9313 0.698167 16.3572 0.472091 15.7234C0.250364 15.1188 0.0981818 14.4279 0.054 13.4175C0.00981817 12.4027 0 12.0797 0 9.5C0 6.91945 0.0106364 6.59645 0.054 5.58427C0.0973636 4.57209 0.250364 3.88118 0.472091 3.27664C0.6985 2.6428 1.0531 2.06868 1.51118 1.59427C1.9604 1.11107 2.50402 0.737065 3.10418 0.498318C3.67691 0.264273 4.33145 0.103636 5.28873 0.057H5.28955ZM12.6368 1.767C11.6877 1.72123 11.403 1.71173 9 1.71173C6.597 1.71173 6.31227 1.72123 5.36318 1.767C4.48527 1.80932 4.00909 1.96391 3.69164 2.09432C3.27191 2.26705 2.97164 2.47173 2.65664 2.80423C2.35804 3.11086 2.12824 3.48415 1.98409 3.89673C1.86055 4.23182 1.71409 4.73445 1.674 5.66114C1.63064 6.66295 1.62164 6.9635 1.62164 9.5C1.62164 12.0365 1.63064 12.337 1.674 13.3389C1.71409 14.2655 1.86055 14.7682 1.98409 15.1033C2.12809 15.5152 2.358 15.8892 2.65664 16.1958C2.94709 16.511 3.30136 16.7537 3.69164 16.9057C4.00909 17.0361 4.48527 17.1907 5.36318 17.233C6.31227 17.2788 6.59618 17.2883 9 17.2883C11.4038 17.2883 11.6877 17.2788 12.6368 17.233C13.5147 17.1907 13.9909 17.0361 14.3084 16.9057C14.7281 16.733 15.0284 16.5283 15.3434 16.1958C15.642 15.8892 15.8719 15.5152 16.0159 15.1033C16.1395 14.7682 16.2859 14.2655 16.326 13.3389C16.3694 12.337 16.3784 12.0365 16.3784 9.5C16.3784 6.9635 16.3694 6.66295 16.326 5.66114C16.2859 4.73445 16.1395 4.23182 16.0159 3.89673C15.8523 3.45368 15.6584 3.13673 15.3434 2.80423C15.0528 2.48906 14.6992 2.2465 14.3084 2.09432C13.9909 1.96391 13.5147 1.80932 12.6368 1.767ZM7.85045 12.4286C8.49245 12.7107 9.20731 12.7488 9.87294 12.5363C10.5386 12.3239 11.1137 11.8741 11.5 11.2638C11.8864 10.6534 12.06 9.92048 11.9913 9.19005C11.9226 8.45961 11.6157 7.77702 11.1232 7.25886C10.8092 6.92764 10.4295 6.67402 10.0115 6.51626C9.59355 6.35851 9.14762 6.30054 8.70586 6.34653C8.2641 6.39252 7.83749 6.54133 7.45675 6.78225C7.07601 7.02316 6.75061 7.35019 6.50397 7.73978C6.25734 8.12937 6.09561 8.57184 6.03042 9.03533C5.96524 9.49882 5.99821 9.9718 6.12699 10.4202C6.25576 10.8686 6.47712 11.2813 6.77514 11.6286C7.07315 11.9759 7.4404 12.2491 7.85045 12.4286ZM5.72891 6.04718C6.15847 5.59375 6.66844 5.23407 7.2297 4.98868C7.79095 4.74328 8.3925 4.61698 9 4.61698C9.6075 4.61698 10.209 4.74328 10.7703 4.98868C11.3316 5.23407 11.8415 5.59375 12.2711 6.04718C12.7007 6.50061 13.0414 7.03891 13.2739 7.63135C13.5064 8.22378 13.626 8.85875 13.626 9.5C13.626 10.1412 13.5064 10.7762 13.2739 11.3687C13.0414 11.9611 12.7007 12.4994 12.2711 12.9528C11.4035 13.8686 10.2269 14.383 9 14.383C7.7731 14.383 6.59646 13.8686 5.72891 12.9528C4.86136 12.0371 4.37398 10.7951 4.37398 9.5C4.37398 8.20494 4.86136 6.96293 5.72891 6.04718ZM14.652 5.34418C14.7584 5.23819 14.8437 5.11072 14.9026 4.96934C14.9616 4.82796 14.993 4.67553 14.9952 4.52108C14.9973 4.36662 14.97 4.21329 14.915 4.07015C14.86 3.92702 14.7784 3.79699 14.6749 3.68776C14.5714 3.57854 14.4482 3.49234 14.3126 3.43427C14.177 3.37619 14.0317 3.34743 13.8854 3.34969C13.7391 3.35194 13.5947 3.38516 13.4607 3.44737C13.3268 3.50959 13.2061 3.59955 13.1056 3.71191C12.9103 3.93043 12.8034 4.2207 12.8076 4.52108C12.8117 4.82146 12.9266 5.1083 13.1279 5.32073C13.3291 5.53315 13.6008 5.65442 13.8854 5.6588C14.17 5.66318 14.445 5.55032 14.652 5.34418Z" fill="#c13584"/>
</svg>
