<svg width="23" height="15" viewBox="0 0 23 18" fill="none" xmlns="http://www.w3.org/2000/svg">
<path d="M22.1538 4.67031V14.5385C22.1538 15.4565 21.7892 16.337 21.14 16.9861C20.4908 17.6353 19.6104 18 18.6923 18H3.46154C2.54348 18 1.66303 17.6353 1.01386 16.9861C0.364697 16.337 0 15.4565 0 14.5385V4.67031L10.7252 10.9814C10.8318 11.0442 10.9532 11.0774 11.0769 11.0774C11.2006 11.0774 11.3221 11.0442 11.4286 10.9814L22.1538 4.67031ZM18.6923 4.28576e-08C19.544 -0.000133914 20.3659 0.313763 21.0007 0.88164C21.6356 1.44952 22.0387 2.2315 22.1331 3.078L11.0769 9.58154L0.0207694 3.078C0.115142 2.2315 0.518295 1.44952 1.1531 0.88164C1.78791 0.313763 2.6098 -0.000133914 3.46154 4.28576e-08H18.6923Z" fill="black"/>
</svg>
