<svg width="195" height="654" viewBox="0 0 195 654" fill="none" xmlns="http://www.w3.org/2000/svg">
<path fill-rule="evenodd" clip-rule="evenodd" d="M77.4 -5.14046e-06L97 -4.28372e-06L97 13.08L57.8 13.08L57.8 26.705L116.6 26.705L116.6 39.785L97 39.785L97 53.41L136.2 53.41L136.2 66.49L136.2 80.115L116.6 80.115L116.6 93.195L18.6 93.195L18.6 106.82L38.2 106.82L38.2 119.9L195 119.9L195 133.525L97 133.525L97 146.605L136.2 146.605L136.2 160.23L77.4 160.23L77.4 173.31L175.4 173.31L175.4 186.935L175.4 200.015L116.6 200.015L116.6 213.64L38.2 213.64L38.2 226.72L18.6 226.72L18.6 240.345L77.4 240.345L77.4 253.425L175.4 253.425L175.4 267.05L57.8 267.05L57.8 280.13L116.6 280.13L116.6 293.755L175.4 293.755L175.4 306.835L-0.999998 306.835L-0.999999 320.46L77.4 320.46L77.4 333.54L155.8 333.54L155.8 347.165L136.2 347.165L136.2 360.245L77.4 360.245L77.4 373.87L116.6 373.87L116.6 386.95L97 386.95L97 400.575L155.8 400.575L155.8 413.655L57.8 413.655L57.8 427.28L97 427.28L97 440.36L38.2 440.36L38.2 453.985L116.6 453.985L116.6 467.065L136.2 467.065L136.2 480.69L136.2 493.77L38.2 493.77L38.2 507.395L77.4 507.395L77.4 520.475L116.6 520.475L116.6 534.1L38.2 534.1L38.2 547.18L18.6 547.18L18.6 560.805L195 560.805L195 573.885L136.2 573.885L136.2 587.51L18.6 587.51L18.6 600.59L116.6 600.59L116.6 614.215L195 614.215L195 627.295L116.6 627.295L116.6 640.92L18.6 640.92L18.6 654L-1.00001 654L-1.00001 640.92L-1.00001 627.295L-1.00001 614.215L-1.00001 600.59L-1.00001 587.51L-1.00001 573.885L-1.00001 560.805L-1.00001 547.18L-1.00001 534.1L-1.00001 520.475L-1.00001 507.395L-1.00001 493.77L-1.00001 480.69L-1.00001 467.065L-1 453.985L-1 440.36L-1 427.28L-1 413.655L-1 400.575L-1 386.95L-1 373.87L-1 360.245L-1 347.165L-0.999999 333.54L-0.999999 320.46L-0.999998 306.835L-0.999998 293.755L-0.999997 280.13L-0.999996 267.05L-0.999996 253.425L-0.999995 240.345L-0.999995 226.72L-0.999994 213.64L-0.999993 200.015L-0.999993 186.935L-0.999992 173.31L-0.999992 160.23L-0.999991 146.605L-0.999991 133.525L-0.99999 119.9L-0.999989 106.82L-0.999989 93.195L-0.999988 80.115L-0.999988 66.49L-0.999987 53.41L-0.999986 39.785L-0.999986 26.705L-0.999985 13.08L-0.999985 -8.56743e-06L77.4 -5.14046e-06Z" fill="#3CC78F"/>
</svg>
