<svg width="196" height="651" viewBox="0 0 196 651" fill="none" xmlns="http://www.w3.org/2000/svg">
<path fill-rule="evenodd" clip-rule="evenodd" d="M117.6 5.14046e-06L98 4.28372e-06L98 13.02L137.2 13.02L137.2 26.5825L78.4 26.5825L78.4 39.6025L98 39.6025L98 53.165L58.8 53.165L58.8 66.185L58.8 79.7475L78.4 79.7475L78.4 92.7675L176.4 92.7675L176.4 106.33L156.8 106.33L156.8 119.35L-5.21695e-06 119.35L-5.80979e-06 132.913L98 132.913L98 145.933L58.8 145.933L58.8 159.495L117.6 159.495L117.6 172.515L19.6 172.515L19.6 186.078L19.6 199.098L78.4 199.098L78.4 212.66L156.8 212.66L156.8 225.68L176.4 225.68L176.4 239.243L117.6 239.243L117.6 252.263L19.6 252.263L19.6 265.825L137.2 265.825L137.2 278.845L78.4 278.845L78.4 292.408L19.6 292.408L19.6 305.428L196 305.428L196 318.99L117.6 318.99L117.6 332.01L39.2 332.01L39.2 345.573L58.8 345.573L58.8 358.593L117.6 358.593L117.6 372.155L78.4 372.155L78.4 385.175L98 385.175L98 398.738L39.2 398.738L39.2 411.758L137.2 411.758L137.2 425.32L98 425.32L98 438.34L156.8 438.34L156.8 451.903L78.4 451.903L78.4 464.923L58.8 464.923L58.8 478.485L58.8 491.505L156.8 491.505L156.8 505.068L117.6 505.068L117.6 518.088L78.4 518.088L78.4 531.65L156.8 531.65L156.8 544.67L176.4 544.67L176.4 558.233L-2.44011e-05 558.233L-2.49702e-05 571.253L58.8 571.253L58.8 584.815L176.4 584.815L176.4 597.835L78.4 597.835L78.4 611.398L-2.6725e-05 611.398L-2.72942e-05 624.418L78.4 624.418L78.4 637.98L176.4 637.98L176.4 651L196 651L196 637.98L196 624.418L196 611.398L196 597.835L196 584.815L196 571.253L196 558.233L196 544.67L196 531.65L196 518.088L196 505.068L196 491.505L196 478.485L196 464.923L196 451.903L196 438.34L196 425.32L196 411.758L196 398.738L196 385.175L196 372.155L196 358.593L196 345.573L196 332.01L196 318.99L196 305.428L196 292.408L196 278.845L196 265.825L196 252.263L196 239.243L196 225.68L196 212.66L196 199.098L196 186.078L196 172.515L196 159.495L196 145.933L196 132.913L196 119.35L196 106.33L196 92.7675L196 79.7475L196 66.185L196 53.165L196 39.6025L196 26.5825L196 13.02L196 8.56743e-06L117.6 5.14046e-06Z" fill="#3CC78F"/>
</svg>
